<svg id="visual" viewBox="0 0 960 540" width="960" height="540" xmlns="http://www.w3.org/2000/svg" xmlns:xlink="http://www.w3.org/1999/xlink" version="1.1"><rect x="0" y="0" width="960" height="540" fill="#112d57"></rect><g fill="#4FACF7"><circle r="13" cx="146" cy="352"></circle><circle r="2" cx="446" cy="98"></circle><circle r="10" cx="307" cy="438"></circle><circle r="1" cx="703" cy="394"></circle><circle r="8" cx="319" cy="519"></circle><circle r="2" cx="511" cy="458"></circle><circle r="8" cx="397" cy="18"></circle><circle r="4" cx="173" cy="282"></circle><circle r="6" cx="241" cy="527"></circle><circle r="11" cx="145" cy="15"></circle><circle r="11" cx="889" cy="225"></circle><circle r="8" cx="56" cy="37"></circle><circle r="4" cx="512" cy="7"></circle><circle r="9" cx="890" cy="33"></circle><circle r="6" cx="698" cy="49"></circle><circle r="2" cx="888" cy="63"></circle><circle r="1" cx="280" cy="150"></circle><circle r="9" cx="522" cy="230"></circle><circle r="10" cx="117" cy="372"></circle><circle r="5" cx="539" cy="486"></circle><circle r="9" cx="637" cy="209"></circle><circle r="11" cx="815" cy="383"></circle><circle r="10" cx="937" cy="175"></circle><circle r="8" cx="445" cy="19"></circle><circle r="1" cx="862" cy="309"></circle><circle r="9" cx="529" cy="53"></circle><circle r="9" cx="198" cy="434"></circle><circle r="6" cx="157" cy="397"></circle><circle r="1" cx="754" cy="325"></circle><circle r="3" cx="121" cy="164"></circle><circle r="4" cx="747" cy="253"></circle><circle r="10" cx="437" cy="291"></circle><circle r="10" cx="201" cy="508"></circle><circle r="2" cx="871" cy="403"></circle><circle r="3" cx="299" cy="180"></circle><circle r="10" cx="127" cy="329"></circle><circle r="7" cx="841" cy="280"></circle><circle r="5" cx="824" cy="478"></circle><circle r="4" cx="243" cy="441"></circle><circle r="4" cx="884" cy="372"></circle><circle r="9" cx="164" cy="173"></circle><circle r="2" cx="26" cy="358"></circle><circle r="5" cx="186" cy="252"></circle><circle r="3" cx="628" cy="492"></circle><circle r="5" cx="310" cy="235"></circle><circle r="8" cx="896" cy="438"></circle><circle r="9" cx="363" cy="283"></circle><circle r="11" cx="529" cy="523"></circle><circle r="8" cx="584" cy="250"></circle><circle r="9" cx="275" cy="359"></circle><circle r="1" cx="300" cy="103"></circle><circle r="1" cx="559" cy="364"></circle><circle r="4" cx="925" cy="285"></circle><circle r="10" cx="247" cy="35"></circle><circle r="6" cx="796" cy="29"></circle><circle r="5" cx="637" cy="349"></circle><circle r="10" cx="442" cy="329"></circle><circle r="6" cx="509" cy="288"></circle><circle r="1" cx="482" cy="325"></circle><circle r="5" cx="752" cy="296"></circle><circle r="6" cx="312" cy="27"></circle><circle r="8" cx="843" cy="200"></circle><circle r="1" cx="733" cy="153"></circle><circle r="2" cx="273" cy="477"></circle><circle r="5" cx="896" cy="318"></circle><circle r="3" cx="251" cy="186"></circle><circle r="7" cx="488" cy="71"></circle><circle r="9" cx="411" cy="406"></circle><circle r="11" cx="676" cy="300"></circle><circle r="8" cx="952" cy="493"></circle><circle r="1" cx="281" cy="288"></circle><circle r="4" cx="432" cy="478"></circle><circle r="9" cx="15" cy="490"></circle><circle r="8" cx="282" cy="50"></circle><circle r="2" cx="509" cy="142"></circle><circle r="7" cx="221" cy="351"></circle><circle r="11" cx="289" cy="417"></circle><circle r="9" cx="571" cy="493"></circle><circle r="4" cx="754" cy="51"></circle><circle r="8" cx="826" cy="348"></circle><circle r="4" cx="398" cy="449"></circle><circle r="10" cx="671" cy="437"></circle><circle r="1" cx="240" cy="469"></circle><circle r="2" cx="682" cy="373"></circle><circle r="6" cx="354" cy="328"></circle><circle r="10" cx="517" cy="379"></circle><circle r="8" cx="455" cy="128"></circle><circle r="4" cx="383" cy="241"></circle><circle r="8" cx="742" cy="504"></circle><circle r="4" cx="707" cy="110"></circle><circle r="9" cx="748" cy="122"></circle><circle r="2" cx="216" cy="82"></circle><circle r="9" cx="16" cy="150"></circle><circle r="3" cx="374" cy="507"></circle><circle r="8" cx="119" cy="41"></circle><circle r="7" cx="713" cy="311"></circle><circle r="10" cx="407" cy="519"></circle><circle r="11" cx="84" cy="251"></circle><circle r="2" cx="77" cy="406"></circle><circle r="8" cx="291" cy="504"></circle><circle r="11" cx="597" cy="130"></circle><circle r="10" cx="789" cy="259"></circle><circle r="1" cx="131" cy="246"></circle><circle r="3" cx="451" cy="157"></circle><circle r="6" cx="35" cy="203"></circle><circle r="10" cx="330" cy="1"></circle><circle r="7" cx="346" cy="509"></circle><circle r="7" cx="792" cy="95"></circle><circle r="5" cx="84" cy="291"></circle><circle r="9" cx="209" cy="22"></circle><circle r="6" cx="418" cy="360"></circle><circle r="8" cx="185" cy="374"></circle><circle r="8" cx="363" cy="26"></circle><circle r="10" cx="900" cy="464"></circle><circle r="9" cx="762" cy="180"></circle><circle r="1" cx="193" cy="55"></circle><circle r="1" cx="124" cy="476"></circle><circle r="6" cx="279" cy="538"></circle><circle r="6" cx="31" cy="26"></circle><circle r="9" cx="948" cy="372"></circle><circle r="11" cx="793" cy="428"></circle><circle r="6" cx="100" cy="328"></circle><circle r="8" cx="435" cy="216"></circle><circle r="4" cx="927" cy="209"></circle><circle r="7" cx="647" cy="144"></circle><circle r="3" cx="685" cy="331"></circle><circle r="2" cx="579" cy="170"></circle><circle r="6" cx="825" cy="258"></circle><circle r="4" cx="481" cy="143"></circle><circle r="4" cx="688" cy="490"></circle><circle r="11" cx="918" cy="379"></circle><circle r="3" cx="270" cy="222"></circle><circle r="7" cx="860" cy="112"></circle><circle r="3" cx="597" cy="519"></circle><circle r="5" cx="357" cy="176"></circle><circle r="1" cx="476" cy="95"></circle><circle r="5" cx="618" cy="452"></circle><circle r="11" cx="817" cy="168"></circle><circle r="2" cx="886" cy="110"></circle><circle r="3" cx="565" cy="336"></circle><circle r="4" cx="182" cy="315"></circle><circle r="1" cx="14" cy="77"></circle><circle r="3" cx="302" cy="317"></circle><circle r="11" cx="364" cy="126"></circle><circle r="8" cx="757" cy="380"></circle><circle r="3" cx="48" cy="443"></circle><circle r="9" cx="464" cy="473"></circle><circle r="11" cx="890" cy="284"></circle><circle r="2" cx="38" cy="518"></circle><circle r="9" cx="619" cy="113"></circle><circle r="3" cx="788" cy="304"></circle><circle r="10" cx="720" cy="194"></circle><circle r="2" cx="168" cy="135"></circle><circle r="11" cx="324" cy="330"></circle><circle r="11" cx="181" cy="99"></circle><circle r="4" cx="254" cy="330"></circle><circle r="7" cx="503" cy="502"></circle><circle r="7" cx="397" cy="377"></circle><circle r="1" cx="543" cy="177"></circle><circle r="7" cx="768" cy="516"></circle><circle r="7" cx="707" cy="255"></circle><circle r="3" cx="847" cy="509"></circle><circle r="10" cx="774" cy="221"></circle><circle r="11" cx="83" cy="456"></circle><circle r="6" cx="683" cy="25"></circle><circle r="9" cx="120" cy="214"></circle><circle r="9" cx="848" cy="143"></circle><circle r="10" cx="636" cy="64"></circle><circle r="3" cx="781" cy="337"></circle><circle r="6" cx="259" cy="85"></circle><circle r="1" cx="52" cy="301"></circle><circle r="4" cx="895" cy="500"></circle><circle r="11" cx="955" cy="457"></circle><circle r="4" cx="61" cy="173"></circle><circle r="3" cx="246" cy="501"></circle><circle r="8" cx="653" cy="97"></circle><circle r="11" cx="820" cy="11"></circle><circle r="6" cx="570" cy="106"></circle><circle r="3" cx="158" cy="446"></circle><circle r="9" cx="210" cy="145"></circle><circle r="7" cx="39" cy="406"></circle><circle r="3" cx="26" cy="324"></circle><circle r="9" cx="202" cy="463"></circle><circle r="7" cx="552" cy="32"></circle><circle r="2" cx="824" cy="91"></circle><circle r="6" cx="399" cy="65"></circle><circle r="6" cx="244" cy="384"></circle><circle r="4" cx="625" cy="35"></circle><circle r="8" cx="927" cy="428"></circle><circle r="6" cx="550" cy="276"></circle><circle r="8" cx="743" cy="74"></circle><circle r="8" cx="951" cy="135"></circle><circle r="5" cx="113" cy="507"></circle><circle r="9" cx="369" cy="372"></circle><circle r="5" cx="213" cy="305"></circle><circle r="1" cx="86" cy="187"></circle><circle r="8" cx="392" cy="192"></circle><circle r="3" cx="341" cy="83"></circle><circle r="3" cx="691" cy="181"></circle><circle r="9" cx="788" cy="477"></circle><circle r="9" cx="955" cy="301"></circle><circle r="1" cx="598" cy="296"></circle><circle r="9" cx="856" cy="52"></circle><circle r="3" cx="613" cy="76"></circle><circle r="10" cx="25" cy="458"></circle><circle r="2" cx="925" cy="17"></circle><circle r="6" cx="520" cy="428"></circle><circle r="3" cx="949" cy="539"></circle><circle r="9" cx="454" cy="60"></circle><circle r="2" cx="743" cy="466"></circle><circle r="11" cx="661" cy="463"></circle><circle r="4" cx="856" cy="450"></circle><circle r="1" cx="67" cy="504"></circle><circle r="11" cx="538" cy="252"></circle><circle r="10" cx="680" cy="74"></circle><circle r="4" cx="716" cy="363"></circle><circle r="7" cx="54" cy="110"></circle><circle r="3" cx="655" cy="262"></circle><circle r="4" cx="216" cy="251"></circle><circle r="1" cx="2" cy="428"></circle><circle r="9" cx="136" cy="140"></circle><circle r="7" cx="769" cy="19"></circle><circle r="2" cx="150" cy="45"></circle><circle r="4" cx="905" cy="526"></circle><circle r="3" cx="959" cy="41"></circle><circle r="10" cx="868" cy="170"></circle><circle r="11" cx="562" cy="437"></circle><circle r="10" cx="470" cy="246"></circle><circle r="1" cx="841" cy="535"></circle><circle r="9" cx="704" cy="151"></circle><circle r="11" cx="233" cy="280"></circle><circle r="1" cx="595" cy="407"></circle><circle r="11" cx="351" cy="253"></circle><circle r="7" cx="850" cy="335"></circle><circle r="5" cx="382" cy="308"></circle><circle r="9" cx="125" cy="272"></circle><circle r="6" cx="261" cy="122"></circle><circle r="5" cx="298" cy="471"></circle><circle r="10" cx="629" cy="425"></circle><circle r="7" cx="682" cy="270"></circle><circle r="11" cx="66" cy="536"></circle><circle r="10" cx="729" cy="389"></circle><circle r="7" cx="272" cy="5"></circle><circle r="3" cx="820" cy="510"></circle><circle r="9" cx="41" cy="256"></circle><circle r="3" cx="57" cy="227"></circle><circle r="5" cx="718" cy="519"></circle><circle r="9" cx="632" cy="525"></circle><circle r="4" cx="587" cy="37"></circle><circle r="5" cx="224" cy="413"></circle><circle r="4" cx="665" cy="201"></circle><circle r="5" cx="80" cy="81"></circle><circle r="11" cx="478" cy="439"></circle><circle r="2" cx="404" cy="260"></circle><circle r="7" cx="656" cy="27"></circle><circle r="9" cx="915" cy="122"></circle><circle r="1" cx="612" cy="339"></circle><circle r="5" cx="82" cy="52"></circle><circle r="10" cx="426" cy="440"></circle><circle r="11" cx="370" cy="475"></circle><circle r="9" cx="864" cy="253"></circle><circle r="3" cx="374" cy="429"></circle><circle r="9" cx="237" cy="5"></circle><circle r="10" cx="916" cy="155"></circle><circle r="11" cx="85" cy="363"></circle><circle r="9" cx="370" cy="213"></circle><circle r="8" cx="146" cy="298"></circle><circle r="3" cx="338" cy="113"></circle><circle r="4" cx="396" cy="101"></circle><circle r="2" cx="486" cy="530"></circle><circle r="6" cx="735" cy="429"></circle><circle r="1" cx="528" cy="99"></circle><circle r="6" cx="726" cy="23"></circle><circle r="3" cx="182" cy="207"></circle><circle r="9" cx="953" cy="421"></circle><circle r="1" cx="808" cy="536"></circle><circle r="4" cx="482" cy="272"></circle><circle r="5" cx="384" cy="164"></circle><circle r="3" cx="418" cy="165"></circle><circle r="9" cx="956" cy="249"></circle><circle r="7" cx="337" cy="379"></circle><circle r="7" cx="26" cy="282"></circle><circle r="6" cx="313" cy="129"></circle><circle r="6" cx="496" cy="239"></circle><circle r="2" cx="440" cy="385"></circle><circle r="6" cx="104" cy="399"></circle><circle r="5" cx="702" cy="2"></circle><circle r="1" cx="824" cy="436"></circle><circle r="10" cx="682" cy="524"></circle><circle r="7" cx="202" cy="190"></circle><circle r="1" cx="703" cy="222"></circle><circle r="1" cx="607" cy="5"></circle><circle r="1" cx="623" cy="249"></circle><circle r="1" cx="766" cy="151"></circle><circle r="3" cx="721" cy="480"></circle><circle r="9" cx="139" cy="187"></circle><circle r="11" cx="703" cy="450"></circle><circle r="5" cx="677" cy="243"></circle><circle r="9" cx="857" cy="476"></circle><circle r="3" cx="535" cy="299"></circle><circle r="8" cx="567" cy="300"></circle><circle r="4" cx="796" cy="134"></circle><circle r="3" cx="846" cy="234"></circle><circle r="4" cx="764" cy="437"></circle><circle r="7" cx="567" cy="221"></circle><circle r="6" cx="415" cy="327"></circle><circle r="4" cx="511" cy="315"></circle><circle r="3" cx="330" cy="489"></circle><circle r="11" cx="649" cy="317"></circle><circle r="11" cx="488" cy="413"></circle><circle r="9" cx="330" cy="299"></circle><circle r="7" cx="296" cy="207"></circle><circle r="3" cx="940" cy="72"></circle><circle r="7" cx="925" cy="499"></circle><circle r="4" cx="902" cy="201"></circle><circle r="1" cx="864" cy="9"></circle><circle r="4" cx="800" cy="190"></circle><circle r="3" cx="109" cy="442"></circle><circle r="3" cx="458" cy="517"></circle><circle r="10" cx="920" cy="343"></circle><circle r="5" cx="677" cy="149"></circle><circle r="2" cx="947" cy="333"></circle><circle r="11" cx="421" cy="134"></circle><circle r="1" cx="83" cy="146"></circle><circle r="8" cx="825" cy="124"></circle><circle r="9" cx="305" cy="263"></circle><circle r="9" cx="143" cy="106"></circle><circle r="1" cx="342" cy="43"></circle><circle r="9" cx="317" cy="63"></circle><circle r="8" cx="682" cy="121"></circle><circle r="7" cx="758" cy="411"></circle><circle r="2" cx="331" cy="149"></circle><circle r="10" cx="237" cy="107"></circle><circle r="5" cx="597" cy="367"></circle><circle r="1" cx="18" cy="3"></circle><circle r="4" cx="610" cy="191"></circle><circle r="2" cx="566" cy="63"></circle><circle r="6" cx="888" cy="154"></circle><circle r="11" cx="135" cy="538"></circle><circle r="10" cx="827" cy="304"></circle><circle r="6" cx="923" cy="257"></circle><circle r="1" cx="499" cy="114"></circle><circle r="2" cx="560" cy="532"></circle><circle r="7" cx="570" cy="412"></circle><circle r="6" cx="155" cy="235"></circle><circle r="8" cx="101" cy="127"></circle><circle r="5" cx="854" cy="366"></circle><circle r="6" cx="540" cy="124"></circle><circle r="1" cx="606" cy="165"></circle><circle r="9" cx="544" cy="402"></circle><circle r="11" cx="28" cy="54"></circle><circle r="4" cx="481" cy="2"></circle><circle r="10" cx="793" cy="360"></circle><circle r="3" cx="12" cy="530"></circle><circle r="11" cx="189" cy="2"></circle><circle r="6" cx="348" cy="440"></circle><circle r="7" cx="114" cy="98"></circle><circle r="2" cx="758" cy="351"></circle><circle r="7" cx="579" cy="198"></circle><circle r="8" cx="11" cy="223"></circle><circle r="2" cx="533" cy="337"></circle><circle r="6" cx="654" cy="398"></circle><circle r="3" cx="366" cy="91"></circle><circle r="4" cx="447" cy="191"></circle><circle r="4" cx="657" cy="499"></circle><circle r="10" cx="48" cy="470"></circle><circle r="7" cx="63" cy="339"></circle><circle r="7" cx="91" cy="22"></circle><circle r="4" cx="497" cy="360"></circle><circle r="3" cx="590" cy="475"></circle><circle r="6" cx="208" cy="224"></circle><circle r="4" cx="780" cy="392"></circle><circle r="6" cx="918" cy="47"></circle><circle r="7" cx="69" cy="2"></circle><circle r="5" cx="506" cy="181"></circle><circle r="7" cx="14" cy="396"></circle><circle r="3" cx="746" cy="219"></circle><circle r="9" cx="346" cy="407"></circle><circle r="8" cx="467" cy="366"></circle><circle r="8" cx="163" cy="73"></circle><circle r="10" cx="243" cy="151"></circle><circle r="7" cx="3" cy="300"></circle><circle r="9" cx="229" cy="208"></circle><circle r="2" cx="431" cy="255"></circle><circle r="9" cx="495" cy="27"></circle><circle r="6" cx="138" cy="416"></circle><circle r="5" cx="167" cy="475"></circle><circle r="8" cx="409" cy="235"></circle><circle r="2" cx="157" cy="502"></circle><circle r="9" cx="956" cy="200"></circle><circle r="5" cx="299" cy="387"></circle><circle r="11" cx="620" cy="385"></circle><circle r="7" cx="44" cy="136"></circle><circle r="3" cx="404" cy="477"></circle><circle r="5" cx="377" cy="50"></circle><circle r="6" cx="164" cy="533"></circle><circle r="4" cx="490" cy="479"></circle><circle r="6" cx="708" cy="282"></circle><circle r="9" cx="92" cy="533"></circle><circle r="4" cx="261" cy="415"></circle><circle r="4" cx="257" cy="261"></circle><circle r="9" cx="39" cy="88"></circle><circle r="1" cx="875" cy="519"></circle><circle r="4" cx="418" cy="46"></circle><circle r="9" cx="3" cy="184"></circle><circle r="11" cx="709" cy="78"></circle><circle r="10" cx="598" cy="433"></circle><circle r="10" cx="221" cy="51"></circle><circle r="4" cx="655" cy="536"></circle><circle r="1" cx="837" cy="411"></circle><circle r="10" cx="890" cy="4"></circle><circle r="10" cx="112" cy="301"></circle><circle r="3" cx="538" cy="208"></circle><circle r="1" cx="461" cy="306"></circle><circle r="4" cx="60" cy="378"></circle><circle r="8" cx="793" cy="2"></circle><circle r="10" cx="213" cy="119"></circle><circle r="5" cx="186" cy="344"></circle><circle r="11" cx="546" cy="4"></circle><circle r="7" cx="13" cy="124"></circle><circle r="6" cx="2" cy="46"></circle><circle r="11" cx="336" cy="213"></circle><circle r="8" cx="469" cy="32"></circle><circle r="7" cx="936" cy="104"></circle><circle r="5" cx="631" cy="290"></circle><circle r="11" cx="727" cy="50"></circle><circle r="5" cx="563" cy="150"></circle><circle r="5" cx="816" cy="46"></circle><circle r="3" cx="418" cy="88"></circle><circle r="7" cx="536" cy="450"></circle><circle r="10" cx="121" cy="72"></circle><circle r="10" cx="927" cy="472"></circle><circle r="5" cx="727" cy="339"></circle><circle r="4" cx="694" cy="421"></circle><circle r="5" cx="96" cy="485"></circle><circle r="7" cx="408" cy="290"></circle><circle r="9" cx="586" cy="322"></circle><circle r="8" cx="649" cy="169"></circle><circle r="4" cx="620" cy="314"></circle><circle r="3" cx="579" cy="2"></circle><circle r="9" cx="455" cy="427"></circle><circle r="3" cx="609" cy="272"></circle><circle r="2" cx="470" cy="394"></circle><circle r="5" cx="597" cy="219"></circle><circle r="10" cx="471" cy="207"></circle><circle r="2" cx="394" cy="139"></circle><circle r="10" cx="804" cy="281"></circle><circle r="5" cx="193" cy="408"></circle><circle r="2" cx="206" cy="275"></circle><circle r="2" cx="775" cy="115"></circle><circle r="6" cx="763" cy="485"></circle><circle r="6" cx="475" cy="171"></circle><circle r="7" cx="192" cy="534"></circle><circle r="3" cx="814" cy="220"></circle><circle r="4" cx="431" cy="509"></circle><circle r="4" cx="237" cy="236"></circle><circle r="3" cx="957" cy="2"></circle><circle r="10" cx="151" cy="268"></circle><circle r="6" cx="284" cy="248"></circle><circle r="2" cx="66" cy="271"></circle><circle r="7" cx="848" cy="82"></circle><circle r="5" cx="84" cy="222"></circle><circle r="10" cx="226" cy="178"></circle><circle r="9" cx="215" cy="379"></circle><circle r="11" cx="869" cy="201"></circle><circle r="8" cx="909" cy="79"></circle><circle r="7" cx="29" cy="175"></circle><circle r="4" cx="898" cy="399"></circle><circle r="4" cx="784" cy="61"></circle><circle r="10" cx="950" cy="275"></circle><circle r="7" cx="241" cy="306"></circle><circle r="6" cx="387" cy="339"></circle><circle r="6" cx="377" cy="535"></circle><circle r="3" cx="9" cy="251"></circle><circle r="11" cx="647" cy="235"></circle><circle r="4" cx="455" cy="271"></circle><circle r="4" cx="420" cy="194"></circle><circle r="11" cx="805" cy="324"></circle><circle r="10" cx="305" cy="360"></circle><circle r="2" cx="744" cy="535"></circle><circle r="3" cx="116" cy="3"></circle><circle r="5" cx="287" cy="78"></circle><circle r="4" cx="515" cy="75"></circle><circle r="8" cx="892" cy="256"></circle><circle r="11" cx="542" cy="77"></circle><circle r="2" cx="347" cy="354"></circle><circle r="10" cx="52" cy="64"></circle><circle r="10" cx="172" cy="27"></circle><circle r="10" cx="804" cy="456"></circle><circle r="2" cx="190" cy="165"></circle><circle r="6" cx="273" cy="388"></circle><circle r="2" cx="586" cy="82"></circle><circle r="2" cx="169" cy="422"></circle><circle r="2" cx="4" cy="339"></circle><circle r="6" cx="276" cy="451"></circle><circle r="8" cx="81" cy="109"></circle><circle r="1" cx="771" cy="278"></circle><circle r="6" cx="841" cy="31"></circle><circle r="1" cx="382" cy="399"></circle><circle r="4" cx="217" cy="484"></circle><circle r="9" cx="664" cy="351"></circle><circle r="5" cx="925" cy="316"></circle><circle r="8" cx="635" cy="3"></circle><circle r="1" cx="340" cy="536"></circle><circle r="8" cx="320" cy="415"></circle><circle r="9" cx="888" cy="344"></circle><circle r="7" cx="502" cy="210"></circle><circle r="4" cx="306" cy="155"></circle><circle r="4" cx="672" cy="49"></circle><circle r="10" cx="328" cy="182"></circle><circle r="3" cx="959" cy="395"></circle><circle r="2" cx="563" cy="464"></circle><circle r="11" cx="790" cy="503"></circle><circle r="2" cx="536" cy="152"></circle><circle r="6" cx="86" cy="430"></circle><circle r="1" cx="327" cy="457"></circle><circle r="5" cx="156" cy="208"></circle><circle r="1" cx="734" cy="277"></circle><circle r="4" cx="734" cy="101"></circle><circle r="4" cx="243" cy="65"></circle><circle r="5" cx="767" cy="87"></circle><circle r="1" cx="302" cy="3"></circle><circle r="6" cx="418" cy="2"></circle><circle r="10" cx="959" cy="161"></circle><circle r="10" cx="930" cy="402"></circle><circle r="4" cx="437" cy="537"></circle><circle r="3" cx="667" cy="2"></circle><circle r="5" cx="578" cy="387"></circle><circle r="4" cx="333" cy="272"></circle><circle r="1" cx="914" cy="233"></circle><circle r="8" cx="842" cy="174"></circle><circle r="9" cx="157" cy="329"></circle><circle r="10" cx="375" cy="2"></circle><circle r="6" cx="874" cy="86"></circle></g></svg>